<?xml version="1.0" encoding="iso-8859-1"?>
<!-- Generator: Adobe Illustrator 24.0.1, SVG Export Plug-In . SVG Version: 6.00 Build 0)  -->
<svg version="1.1" id="&#x421;&#x43B;&#x43E;&#x439;_1"
	 xmlns="http://www.w3.org/2000/svg" xmlns:xlink="http://www.w3.org/1999/xlink" x="0px" y="0px" viewBox="0 0 500 500"
	 style="enable-background:new 0 0 500 500;" xml:space="preserve">
<circle style="stroke:#000000;stroke-width:0.75;stroke-miterlimit:10;" cx="250" cy="250" r="155"/>
<g>
	<polygon style="stroke:#FFFFFF;stroke-width:2;stroke-miterlimit:10;" points="179.597,345.725 342.346,345.725 342.346,307.214 
		214.037,306.107 214.646,154.275 157.654,154.275 157.654,345.725 	"/>
	<line style="stroke:#FFFFFF;stroke-width:2;stroke-miterlimit:10;" x1="342.346" y1="307.214" x2="157.654" y2="345.725"/>
	<line style="stroke:#FFFFFF;stroke-width:2;stroke-miterlimit:10;" x1="269.43" y1="345.725" x2="157.654" y2="322.598"/>
	<line style="stroke:#FFFFFF;stroke-width:2;stroke-miterlimit:10;" x1="342.346" y1="345.725" x2="263.966" y2="306.538"/>
	<line style="stroke:#FFFFFF;stroke-width:2;stroke-miterlimit:10;" x1="213.542" y1="306.876" x2="157.654" y2="214.589"/>
	<line style="stroke:#FFFFFF;stroke-width:2;stroke-miterlimit:10;" x1="185.598" y1="154.275" x2="157.654" y2="317.239"/>
	<line style="stroke:#FFFFFF;stroke-width:2;stroke-miterlimit:10;" x1="157.654" y1="176.078" x2="213.542" y2="214.589"/>
</g>
<path style="fill:#A21B27;" d="M353.648,80.077"/>
<path style="fill:#A21B27;" d="M375.011,72.956"/>
<path style="fill:#A21B27;" d="M447.132,13.286"/>
<path style="fill:#FFFFFF;" d="M249.642,189.394c-16.561,26.089,6.936,72.946,30.416,97.574c0.203,0.213,0.377,0.394,0.51,0.531
	c0.019-0.12,0.038-0.239,0.057-0.359c-0.019,0.12-0.038,0.239-0.057,0.359c35.122-36.941,46.615-78.178,32.864-98.349
	c-5.716-8.385-18.49-17.083-33.041-16.635C269.201,172.861,256.475,178.63,249.642,189.394z M259.096,208.655
	c0-12.718,9.861-23.028,22.026-23.028c12.164,0,22.026,10.31,22.026,23.028c0,12.718-9.861,23.028-22.026,23.028
	C268.957,231.683,259.096,221.373,259.096,208.655z"/>
<path style="fill:#A21B27;" d="M466.879,295.484"/>
<path style="fill:#A21B27;" d="M466.879,301.22"/>
<path style="fill:#A21B27;" d="M466.286,296.275"/>
<path style="fill:#A21B27;" d="M451.549,85.615"/>
<path style="fill:#A21B27;" d="M423.659,52.187"/>
</svg>
