<svg width="68" height="68" viewBox="0 0 68 68" fill="none" xmlns="http://www.w3.org/2000/svg">
<path d="M34 66C51.6731 66 66 51.6731 66 34C66 16.3269 51.6731 2 34 2C16.3269 2 2 16.3269 2 34C2 51.6731 16.3269 66 34 66Z" fill="black" stroke="white" stroke-width="3" stroke-miterlimit="10"/>
<path d="M19.4652 53.7626H53.065V45.8119L26.5754 45.5834L26.7011 14.2374H14.9351V53.7626H19.4652Z" fill="black" stroke="white" stroke-width="2" stroke-miterlimit="10"/>
<path d="M53.065 45.8119L14.9351 53.7626" stroke="white" stroke-width="2" stroke-miterlimit="10"/>
<path d="M38.0114 53.7626L14.9351 48.988" stroke="white" stroke-width="2" stroke-miterlimit="10"/>
<path d="M53.065 53.7626L36.8833 45.6724" stroke="white" stroke-width="2" stroke-miterlimit="10"/>
<path d="M26.4732 45.7421L14.9351 26.6893" stroke="white" stroke-width="2" stroke-miterlimit="10"/>
<path d="M20.7041 14.2374L14.9351 47.8816" stroke="white" stroke-width="2" stroke-miterlimit="10"/>
<path d="M14.9351 18.7386L26.4732 26.6893" stroke="white" stroke-width="2" stroke-miterlimit="10"/>
<path d="M33.9261 21.4878C30.5071 26.8739 35.3581 36.5476 40.2056 41.6321C40.2475 41.676 40.2834 41.7134 40.3108 41.7417C40.3148 41.7169 40.3187 41.6923 40.3226 41.6676C40.3187 41.6923 40.3148 41.7169 40.3108 41.7417C47.5618 34.1152 49.9346 25.6017 47.0957 21.4374C45.9156 19.7063 43.2784 17.9106 40.2743 18.0031C37.9641 18.0745 35.3368 19.2655 33.9261 21.4878ZM35.8779 25.4642C35.8779 22.8386 37.9137 20.7101 40.4252 20.7101C42.9365 20.7101 44.9725 22.8386 44.9725 25.4642C44.9725 28.0899 42.9367 30.2184 40.4252 30.2184C37.9137 30.2184 35.8779 28.0899 35.8779 25.4642Z" fill="white"/>
</svg>
