<?xml version="1.0" encoding="iso-8859-1"?>
<!-- Generator: Adobe Illustrator 19.0.0, SVG Export Plug-In . SVG Version: 6.00 Build 0)  -->
<svg version="1.1" id="Capa_1" xmlns="http://www.w3.org/2000/svg" xmlns:xlink="http://www.w3.org/1999/xlink" x="0px" y="0px"
	 viewBox="0 0 480 480" style="enable-background:new 0 0 480 480;" xml:space="preserve">
<g>
	<g>
		<path d="M151.898,160c-13.255,0-24,10.745-24,24v8h16v-8c0-4.418,3.582-8,8-8s8,3.582,8,8v8h16v-8
			C175.898,170.745,165.152,160,151.898,160z"/>
	</g>
</g>
<g>
	<g>
		<path d="M231.898,160c-13.255,0-24,10.745-24,24v8h16v-8c0-4.418,3.582-8,8-8s8,3.582,8,8v8h16v-8
			C255.898,170.745,245.152,160,231.898,160z"/>
	</g>
</g>
<g>
	<g>
		<path d="M215.898,208h-48c-4.418,0-8,3.582-8,8v8c0,17.673,14.327,32,32,32s32-14.327,32-32v-8
			C223.898,211.582,220.316,208,215.898,208z M191.898,240c-8.837,0-16-7.163-16-16h32C207.898,232.837,200.734,240,191.898,240z"/>
	</g>
</g>
<g>
	<g>
		<path d="M336.308,272c-19.998-0.039-39.584,5.688-56.41,16.496c-2.656-0.311-5.326-0.477-8-0.496h-40v-8.8
			c28.82-13.276,49.233-39.918,54.552-71.2h9.448c13.255,0,24-10.745,24-24s-10.745-24-24-24h-8V96
			c-0.057-52.996-43.004-95.943-96-96h-136c-4.418,0-8,3.582-8,8v48c0.053,27.805,20.483,51.367,48,55.36V160h-8
			c-13.255,0-24,10.745-24,24s10.745,24,24,24h9.448c5.32,31.282,25.732,57.924,54.552,71.2v8.8h-40
			c-39.746,0.044-71.956,32.254-72,72v112c0,4.418,3.582,8,8,8h288c57.438,0.113,104.092-46.357,104.205-103.795
			S393.745,272.114,336.308,272z M287.898,176h8c4.418,0,8,3.582,8,8s-3.582,8-8,8h-8V176z M95.898,192h-8c-4.418,0-8-3.582-8-8
			s3.582-8,8-8h8V192z M271.898,136h-16c-14.587-0.014-27.324-9.88-30.984-24h46.984V136z M63.898,56V16h128
			c44.163,0.049,79.952,35.837,80,80h-168C81.817,95.974,63.924,78.08,63.898,56z M111.898,192v-80h96.72
			c3.919,23.066,23.883,39.957,47.28,40h16v40c0,44.183-35.817,80-80,80S111.898,236.183,111.898,192z M215.898,284.8V296
			c0,13.255-10.745,24-24,24s-24-10.745-24-24v-11.2c7.832,2.082,15.897,3.157,24,3.2
			C200.001,287.957,208.066,286.882,215.898,284.8z M55.898,464V360c0.04-30.911,25.089-55.96,56-56h40.8
			c0,0.144,0.096,0.272,0.128,0.416c0.494,2.278,1.187,4.508,2.072,6.664c0.312,0.8,0.736,1.472,1.096,2.216
			c0.686,1.458,1.458,2.873,2.312,4.24c0.512,0.8,1.096,1.528,1.656,2.288c0.884,1.19,1.829,2.332,2.832,3.424
			c0.672,0.712,1.368,1.376,2.088,2.04c1.07,0.993,2.198,1.922,3.376,2.784c0.8,0.584,1.6,1.144,2.4,1.672
			c1.276,0.788,2.596,1.504,3.952,2.144c0.856,0.416,1.68,0.848,2.56,1.2c1.555,0.589,3.145,1.083,4.76,1.48
			c0.8,0.208,1.544,0.48,2.4,0.64c5.015,1.024,10.185,1.024,15.2,0c0.8-0.16,1.6-0.432,2.4-0.64c1.615-0.396,3.205-0.891,4.76-1.48
			c0.88-0.352,1.704-0.8,2.56-1.2c1.357-0.64,2.676-1.356,3.952-2.144c0.8-0.528,1.6-1.088,2.4-1.672
			c1.178-0.862,2.306-1.791,3.376-2.784c0.72-0.664,1.416-1.328,2.088-2.04c1.003-1.092,1.948-2.234,2.832-3.424
			c0.56-0.76,1.144-1.488,1.656-2.288c0.854-1.367,1.625-2.782,2.312-4.24c0.36-0.744,0.8-1.448,1.096-2.216
			c0.885-2.156,1.578-4.386,2.072-6.664c0-0.144,0.096-0.272,0.128-0.416h29.936c-39.807,41.13-38.736,106.742,2.394,146.549
			c5.246,5.077,11.013,9.585,17.206,13.451H55.898z M335.898,464c-48.601,0-88-39.399-88-88c0-48.601,39.399-88,88-88
			c48.577,0.057,87.943,39.423,88,88C423.898,424.601,384.499,464,335.898,464z"/>
	</g>
</g>
<g>
	<g>
		<path d="M383.898,352h-24v-24c0-4.418-3.582-8-8-8h-32c-4.418,0-8,3.582-8,8v24h-24c-4.418,0-8,3.582-8,8v32c0,4.418,3.582,8,8,8
			h24v24c0,4.418,3.582,8,8,8h32c4.418,0,8-3.582,8-8v-24h24c4.418,0,8-3.582,8-8v-32C391.898,355.582,388.316,352,383.898,352z
			 M375.898,384h-24c-4.418,0-8,3.582-8,8v24h-16v-24c0-4.418-3.582-8-8-8h-24v-16h24c4.418,0,8-3.582,8-8v-24h16v24
			c0,4.418,3.582,8,8,8h24V384z"/>
	</g>
</g>
<g>
</g>
<g>
</g>
<g>
</g>
<g>
</g>
<g>
</g>
<g>
</g>
<g>
</g>
<g>
</g>
<g>
</g>
<g>
</g>
<g>
</g>
<g>
</g>
<g>
</g>
<g>
</g>
<g>
</g>
</svg>
